<svg xmlns="http://www.w3.org/2000/svg" xml:space="preserve" width="68.6243mm" height="28.2482mm" version="1.1" style="shape-rendering:geometricPrecision; text-rendering:geometricPrecision; image-rendering:optimizeQuality; fill-rule:evenodd; clip-rule:evenodd" viewBox="0 0 6866.82 2826.63" xmlns:xlink="http://www.w3.org/1999/xlink">
 <defs>
  <style type="text/css">
   <![CDATA[
    .fil1 {fill:#E30611}
    .fil0 {fill:#2B2A29;fill-rule:nonzero}
   ]]>
  </style>
 </defs>
    <g id="Слой_x0020_1">
  <metadata id="CorelCorpID_0Corel-Layer"/>
        <g id="_740479200">
   <path class="fil0" d="M3610.17 2292.21c-55.83,0 -109.8,-7.56 -161.92,-22.7 -52.13,-15.13 -94,-34.8 -125.61,-59.02l55.49 -123.08c30.27,22.19 66.25,40.02 107.95,53.46 41.71,13.46 83.4,20.18 125.1,20.18 46.41,0 80.71,-6.89 102.91,-20.68 22.19,-13.79 33.3,-32.12 33.3,-54.99 0,-16.81 -6.56,-30.77 -19.68,-41.87 -13.11,-11.1 -29.93,-20.01 -50.44,-26.74 -20.51,-6.72 -48.25,-14.12 -83.23,-22.19 -53.8,-12.78 -97.85,-25.56 -132.15,-38.33 -34.3,-12.78 -63.73,-33.29 -88.28,-61.54 -24.56,-28.25 -36.82,-65.91 -36.82,-113 0,-41.03 11.1,-78.18 33.29,-111.48 22.19,-33.29 55.66,-59.69 100.38,-79.19 44.72,-19.5 99.37,-29.26 163.93,-29.26 45.07,0 89.12,5.38 132.16,16.14 43.05,10.77 80.71,26.24 112.99,46.41l-50.44 124.09c-65.24,-36.99 -130.48,-55.49 -195.72,-55.49 -45.74,0 -79.54,7.39 -101.39,22.19 -21.86,14.8 -32.79,34.3 -32.79,58.52 0,24.22 12.61,42.21 37.83,53.97 25.23,11.77 63.73,23.37 115.51,34.8 53.8,12.78 97.86,25.56 132.16,38.34 34.3,12.78 63.73,32.95 88.28,60.53 24.55,27.58 36.82,64.9 36.82,111.98 0,40.36 -11.27,77.18 -33.8,110.47 -22.52,33.3 -56.33,59.7 -101.38,79.2 -45.07,19.5 -99.88,29.26 -164.45,29.26z"/>
            <polygon class="fil0" points="4279.05,2002.66 4184.22,2101.52 4184.22,2280.1 4021.78,2280.1 4021.78,1573.89 4184.22,1573.89 4184.22,1903.79 4496.97,1573.89 4678.56,1573.89 4385.99,1888.66 4695.71,2280.1 4505.04,2280.1 "/>
            <polygon class="fil0" points="4768.35,1573.89 4931.79,1573.89 4931.79,2146.92 5285.91,2146.92 5285.91,2280.1 4768.35,2280.1 "/>
            <path class="fil0" d="M5848.86 2128.77l-327.89 0 -62.55 151.33 -167.47 0 314.76 -706.21 161.42 0 315.78 706.21 -171.51 0 -62.55 -151.33zm-51.45 -124.1l-111.99 -270.37 -111.98 270.37 223.97 0z"/>
            <path class="fil0" d="M6156.57 1573.89l320.83 0c76.68,0 144.44,14.63 203.29,43.89 58.85,29.26 104.59,70.46 137.21,123.59 32.62,53.13 48.93,115 48.93,185.63 0,70.63 -16.31,132.49 -48.93,185.63 -32.62,53.13 -78.36,94.33 -137.21,123.59 -58.85,29.26 -126.61,43.89 -203.29,43.89l-320.83 0 0 -706.21zm312.75 572.04c70.63,0 126.95,-19.68 168.99,-59.03 42.04,-39.35 63.06,-92.65 63.06,-159.9 0,-67.26 -21.02,-120.56 -63.06,-159.9 -42.04,-39.36 -98.36,-59.03 -168.99,-59.03l-149.31 0 0 437.86 149.31 0z"/>
            <path class="fil0" d="M3683.82 561.45c62.55,0 116.85,10.43 162.93,31.27 46.07,20.85 81.54,50.45 106.43,88.79 24.89,38.33 37.33,83.73 37.33,136.2 0,51.79 -12.45,97.02 -37.33,135.7 -24.89,38.67 -60.36,68.26 -106.43,88.78 -46.08,20.51 -100.38,30.77 -162.93,30.77l-142.25 0 0 194.71 -163.44 0 0 -706.21 305.7 0zm-9.09 378.33c49.1,0 86.43,-10.6 111.99,-31.78 25.56,-21.19 38.33,-51.29 38.33,-90.3 0,-39.69 -12.78,-70.11 -38.33,-91.31 -25.57,-21.18 -62.89,-31.77 -111.99,-31.77l-133.17 0 0 245.16 133.17 0z"/>
            <path class="fil0" d="M4556.48 1267.66l-136.2 -196.73 -8.07 0 -142.25 0 0 196.73 -163.44 0 0 -706.21 305.7 0c62.55,0 116.85,10.43 162.93,31.27 46.07,20.85 81.54,50.45 106.43,88.79 24.89,38.33 37.33,83.73 37.33,136.2 0,52.46 -12.61,97.69 -37.83,135.7 -25.23,37.99 -61.04,67.08 -107.45,87.27l158.4 227 -175.55 0zm-3.02 -449.96c0,-39.69 -12.78,-70.11 -38.33,-91.31 -25.57,-21.18 -62.89,-31.77 -111.99,-31.77l-133.17 0 0 246.16 133.17 0c49.1,0 86.43,-10.76 111.99,-32.28 25.56,-21.52 38.33,-51.79 38.33,-90.8z"/>
            <path class="fil0" d="M5190.06 1279.77c-73.31,0 -139.39,-15.81 -198.24,-47.42 -58.86,-31.61 -104.93,-75.16 -138.22,-130.64 -33.29,-55.5 -49.94,-117.88 -49.94,-187.15 0,-69.27 16.65,-131.65 49.94,-187.15 33.29,-55.49 79.36,-99.03 138.22,-130.64 58.85,-31.61 124.93,-47.42 198.24,-47.42 73.32,0 139.23,15.81 197.75,47.42 58.51,31.61 104.59,75.16 138.21,130.64 33.63,55.5 50.45,117.88 50.45,187.15 0,69.27 -16.82,131.65 -50.45,187.15 -33.62,55.49 -79.7,99.03 -138.21,130.64 -58.52,31.61 -124.43,47.42 -197.75,47.42zm0 -139.23c41.71,0 79.37,-9.59 112.99,-28.75 33.63,-19.17 60.03,-45.91 79.2,-80.21 19.17,-34.3 28.76,-73.31 28.76,-117.02 0,-43.72 -9.59,-82.73 -28.76,-117.03 -19.17,-34.29 -45.57,-61.03 -79.2,-80.2 -33.62,-19.17 -71.29,-28.75 -112.99,-28.75 -41.7,0 -79.36,9.58 -112.99,28.75 -33.63,19.17 -60.03,45.91 -79.19,80.2 -19.17,34.3 -28.76,73.32 -28.76,117.03 0,43.72 9.59,82.72 28.76,117.02 19.16,34.3 45.56,61.04 79.19,80.21 33.63,19.16 71.3,28.75 112.99,28.75z"/>
            <path class="fil1" d="M245.04 0l2336.55 0c134.78,0 245.04,110.27 245.04,245.04l0 2336.55c0,134.77 -110.26,245.04 -245.04,245.04l-2336.55 0c-134.77,0 -245.04,-110.27 -245.04,-245.04l0 -2336.55c0,-134.77 110.27,-245.04 245.04,-245.04zm65.98 157.98l2204.59 0c84.16,0 153.04,68.86 153.04,153.04l0 2204.59c0,84.16 -68.87,153.03 -153.04,153.03l-2204.59 0c-84.16,0 -153.04,-68.86 -153.04,-153.03l0 -2204.59c0,-84.17 68.87,-153.04 153.04,-153.04z"/>
            <path class="fil1" d="M1300.82 502.36l999.3 0c-156.72,92.91 -175.32,177.09 -238.92,368.51 -51.88,156.12 -214.75,286.54 -372.35,286.54l-725.39 0c-67.21,0 -146.07,50.38 -179.42,113.93 58.98,-196.98 -52.23,-407.76 15.79,-601.73 65.58,-187.01 343.4,-167.25 501,-167.25zm-88.67 157.26l769.89 0c-29.88,54.2 -45.59,91.99 -78.62,191.4 -26.95,81.08 -111.54,148.84 -193.39,148.84l-760.21 -0.04c-7.23,-101.66 -33.21,-152.58 2.11,-253.32 34.06,-97.13 178.35,-86.88 260.22,-86.88z"/>
            <path class="fil1" d="M963.46 1245.27l589.8 0 -64.93 216.87c-47.19,157.6 -214.75,286.55 -372.35,286.55l-318.7 0c-76.55,0 -145.25,51.4 -165.99,120.65l152.75 -510.14c33.35,-63.56 112.21,-113.93 179.42,-113.93zm-33.7 157.53l417.88 0 -24.3 81.14c-17.66,58.97 -80.35,107.22 -139.32,107.22l-310.67 0 56.41 -188.36z"/>
            <path class="fil1" d="M798.19 1837.45l308.58 0 19.05 0 -68.68 229.37c-42.5,141.93 -193.38,258.06 -335.31,258.06l-195.3 0 110.98 -370.66c20.09,-67.02 86.6,-116.76 160.69,-116.76zm-19.13 152.12l149.14 0 -25.81 86.21c-15.97,53.33 -72.69,96.98 -126.02,96.98l-52.16 0 54.86 -183.19z"/>
  </g>
 </g>
</svg>
